<svg width="29" height="26" viewBox="0 0 29 26" fill="none" xmlns="http://www.w3.org/2000/svg">
<path d="M10.6667 3.94795C10.6667 3.26497 11.2387 2.66667 12 2.66667C12.7613 2.66667 13.3333 3.26497 13.3333 3.94795C13.3333 4.1783 13.2713 4.3918 13.1615 4.57774C12.9431 4.94808 12.4582 5.41083 11.6733 5.81848C10.906 6.21694 9.93449 6.5182 8.86138 6.62478C6.72612 6.83685 4.27749 6.27464 2.26681 4.30321C1.741 3.78766 0.896822 3.79598 0.381279 4.32179C-0.134263 4.84759 -0.125943 5.69177 0.399862 6.20731C3.05584 8.81146 6.32421 9.55656 9.12493 9.27839C10.5198 9.13985 11.821 8.74661 12.9023 8.18501C13.966 7.6326 14.9055 6.86975 15.4583 5.93278C15.8024 5.34958 16 4.67007 16 3.94795C16 1.7429 14.1842 0 12 0C9.81576 0 8 1.7429 8 3.94795C8 4.68433 8.59695 5.28129 9.33333 5.28129C10.0697 5.28129 10.6667 4.68433 10.6667 3.94795Z" fill="#87CEFA"/>
<path d="M22.0003 8.90418C22.0003 7.27887 23.0856 6.33333 24.0003 6.33333C24.9149 6.33333 26.0003 7.27887 26.0003 8.90418C26.0003 9.58914 25.7898 10.1915 25.4698 10.6374L25.4413 10.6772L25.4157 10.719C24.9961 11.4048 24.0522 12.0208 22.4184 12.4416C20.8211 12.853 18.7943 13.0173 16.5585 12.9986C12.0964 12.9612 7.07314 12.1997 3.59623 11.5012C2.87428 11.3561 2.17143 11.8238 2.02638 12.5457C1.88133 13.2677 2.349 13.9705 3.07095 14.1156C6.62924 14.8305 11.8368 15.6258 16.5362 15.6651C18.8812 15.6848 21.1678 15.5174 23.0834 15.024C24.9457 14.5444 26.6995 13.6938 27.6645 12.1526C28.3013 11.2475 28.6669 10.1137 28.6669 8.90418C28.6669 6.21705 26.7675 3.66667 24.0003 3.66667C21.233 3.66667 19.3336 6.21705 19.3336 8.90418C19.3336 9.64056 19.9305 10.2375 20.6669 10.2375C21.4033 10.2375 22.0003 9.64056 22.0003 8.90418Z" fill="#87CEFA"/>
<path d="M20.8954 20.6754C20.2909 19.5168 19.1654 18.5909 17.8345 17.9349C16.4807 17.2676 14.8132 16.8268 12.9709 16.7026C9.27553 16.4535 4.7951 17.4715 0.539053 20.6286C-0.0523723 21.0674 -0.176168 21.9025 0.262547 22.4939C0.701262 23.0853 1.53636 23.2091 2.12778 22.7704C5.87168 19.9932 9.72452 19.1565 12.7916 19.3632C14.3305 19.467 15.6515 19.8319 16.6555 20.3268C17.6789 20.8312 18.278 21.421 18.533 21.9125L18.5378 21.9218L18.5428 21.931C18.6181 22.0707 18.6667 22.2443 18.6667 22.4413C18.6667 23.0714 18.2379 23.3333 18.0001 23.3333C17.8029 23.3333 17.5132 23.184 17.3847 22.7794C17.1617 22.0776 16.4121 21.6894 15.7103 21.9123C15.0084 22.1353 14.6202 22.8849 14.8432 23.5868C15.2638 24.9109 16.4557 26 18.0001 26C19.9714 26 21.3334 24.2692 21.3334 22.4413C21.3334 21.8064 21.1769 21.2016 20.8954 20.6754Z" fill="#87CEFA"/>
<path d="M23.3333 16.6667C22.597 16.6667 22 17.2636 22 18C22 18.7364 22.597 19.3333 23.3333 19.3333H26C26.7364 19.3333 27.3333 18.7364 27.3333 18C27.3333 17.2636 26.7364 16.6667 26 16.6667H23.3333Z" fill="#87CEFA"/>
</svg>
